<svg xmlns="http://www.w3.org/2000/svg" viewBox="0 0 1200 716" role="img" aria-labelledby="title description" fill="none" stroke-linecap="round" stroke-linejoin="round"><title id="title">Dynare editing and project checks</title><desc id="description">Illustrated native editor, equation CodeLens, related diagnostic and Ignore/Explain actions, with distinct model counts and project coverage.</desc><g font-family="Arial, sans-serif"><rect x="0" y="0" width="1200" height="716" rx="0" fill="#ffffff" stroke="none"/><rect x="16" y="16" width="1168" height="664" rx="10" fill="white" stroke="#bbc5d2"/><rect x="16" y="16" width="1168" height="42" rx="10" fill="#223047" stroke="none"/><rect x="16" y="46" width="1168" height="12" rx="0" fill="#223047" stroke="none"/><text x="38" y="44" font-size="20" fill="#f7f9fd" font-weight="600">Visual Studio Code</text><text x="995" y="43" font-size="21" fill="#f7f9fd" font-weight="400">−    □    ×</text><rect x="16" y="58" width="1168" height="42" rx="0" fill="#eef1f6" stroke="none"/><text x="38" y="86" font-size="20" fill="#223047" font-weight="600">model.mod</text><path d="M16 100L1184 100" stroke="#d4dae3" stroke-width="1"/><rect x="16" y="650" width="1168" height="30" rx="0" fill="#0861b5" stroke="none"/><text x="34" y="672" font-size="17" fill="white" font-weight="400">Dygnosis</text><text x="1077" y="672" font-size="17" fill="white" font-weight="400">Dynare</text><text x="1058" y="705" font-size="16" fill="#627084" font-weight="400">Illustration</text><rect x="16" y="100" width="275" height="550" rx="0" fill="#f3f5f8" stroke="none"/><path d="M291 100L291 650" stroke="#d4dae3" stroke-width="1"/><text x="34" y="128" font-size="17" fill="#516079" font-weight="600">EXPLORER</text><path d="M36 151l5 5 5-5" stroke="#52657d" stroke-width="1.8"/><text x="55" y="163" font-size="21" fill="#223047" font-weight="600">models</text><rect x="17" y="177" width="273" height="35" rx="0" fill="#dceafb" stroke="none"/><text x="54" y="202" font-size="21" fill="#223047" font-weight="400">model.mod</text><text x="54" y="239" font-size="21" fill="#223047" font-weight="400">stoch.mod</text><text x="54" y="276" font-size="21" fill="#223047" font-weight="400">policy.mod</text><path d="M17 294L290 294" stroke="#d4dae3" stroke-width="1"/><text x="34" y="324" font-size="17" fill="#516079" font-weight="600">DYNARE MODEL</text><path d="M36 348l5 5 5-5" stroke="#52657d" stroke-width="1.8"/><text x="55" y="359" font-size="21" fill="#223047" font-weight="400">Aggregate counts</text><text x="55" y="390" font-size="20" fill="#223047" font-weight="400">Endogenous</text><text x="251" y="390" font-size="20" fill="#0861b5" font-weight="600">1</text><text x="55" y="418" font-size="20" fill="#223047" font-weight="400">Exogenous</text><text x="251" y="418" font-size="20" fill="#0861b5" font-weight="600">1</text><text x="55" y="446" font-size="20" fill="#223047" font-weight="400">Parameters</text><text x="251" y="446" font-size="20" fill="#0861b5" font-weight="600">1</text><text x="55" y="474" font-size="20" fill="#223047" font-weight="400">Equations</text><text x="251" y="474" font-size="20" fill="#0861b5" font-weight="600">1</text><path d="M17 490L290 490" stroke="#d4dae3" stroke-width="1"/><text x="34" y="517" font-size="16" fill="#516079" font-weight="600">DYNARE PROJECT CHECKS</text><path d="M36 535l5 5 5-5" stroke="#52657d" stroke-width="1.8"/><text x="55" y="545" font-size="21" fill="#223047" font-weight="400">models</text><path d="M53 566l5 5 10-12" stroke="#16724e" stroke-width="2.5"/><text x="76" y="575" font-size="19" fill="#223047" font-weight="400">model.mod</text><path d="M53 596l5 5 10-12" stroke="#16724e" stroke-width="2.5"/><text x="76" y="605" font-size="19" fill="#223047" font-weight="400">stoch.mod</text><path d="M53 626l5 5 10-12" stroke="#16724e" stroke-width="2.5"/><text x="76" y="635" font-size="19" fill="#223047" font-weight="400">policy.mod</text><text x="311" y="140" font-size="19" fill="#8390a3" font-weight="400" font-family="Consolas, monospace">1</text><text x="363" y="140" font-size="25" fill="#164eb5" font-weight="400" font-family="Consolas, monospace">var y;</text><text x="311" y="177" font-size="19" fill="#8390a3" font-weight="400" font-family="Consolas, monospace">2</text><text x="363" y="177" font-size="25" fill="#164eb5" font-weight="400" font-family="Consolas, monospace">varexo e;</text><text x="311" y="214" font-size="19" fill="#8390a3" font-weight="400" font-family="Consolas, monospace">3</text><text x="363" y="214" font-size="25" fill="#164eb5" font-weight="400" font-family="Consolas, monospace">parameters rho;</text><text x="311" y="251" font-size="19" fill="#8390a3" font-weight="400" font-family="Consolas, monospace">4</text><text x="363" y="251" font-size="25" fill="#223047" font-weight="400" font-family="Consolas, monospace">rho = 1/2;</text><text x="311" y="288" font-size="19" fill="#8390a3" font-weight="400" font-family="Consolas, monospace">5</text><text x="363" y="288" font-size="25" fill="#223047" font-weight="400" font-family="Consolas, monospace">var y;</text><text x="311" y="325" font-size="19" fill="#8390a3" font-weight="400" font-family="Consolas, monospace">6</text><text x="363" y="325" font-size="25" fill="#223047" font-weight="400" font-family="Consolas, monospace"></text><rect x="292" y="334" width="891" height="37" rx="0" fill="#e9f2fc" stroke="none"/><text x="311" y="362" font-size="19" fill="#8390a3" font-weight="400" font-family="Consolas, monospace">7</text><text x="363" y="362" font-size="25" fill="#164eb5" font-weight="400" font-family="Consolas, monospace">model;</text><rect x="292" y="371" width="891" height="37" rx="0" fill="#e9f2fc" stroke="none"/><text x="311" y="399" font-size="19" fill="#8390a3" font-weight="400" font-family="Consolas, monospace">8</text><text x="363" y="399" font-size="25" fill="#223047" font-weight="400" font-family="Consolas, monospace">  [name='output']</text><rect x="292" y="408" width="891" height="37" rx="0" fill="#e9f2fc" stroke="none"/><text x="311" y="436" font-size="19" fill="#8390a3" font-weight="400" font-family="Consolas, monospace">9</text><text x="363" y="436" font-size="25" fill="#223047" font-weight="400" font-family="Consolas, monospace">  y = rho*y(-1) + e;</text><rect x="292" y="445" width="891" height="37" rx="0" fill="#e9f2fc" stroke="none"/><text x="311" y="473" font-size="19" fill="#8390a3" font-weight="400" font-family="Consolas, monospace">10</text><text x="363" y="473" font-size="25" fill="#164eb5" font-weight="400" font-family="Consolas, monospace">end;</text><text x="554" y="251" font-size="20" fill="#637b71" font-weight="400" font-family="Consolas, monospace">= 0.5</text><text x="363" y="338" font-size="19" fill="#536c86" font-weight="400">Browse 1 equation</text><path d="M334 284a7 7 0 1 1 12 0l-2 4h-8zM337 292h6M338 295h4" stroke="#a96300" stroke-width="2" fill="#fff2bd"/><path d="M363 293L447 293" stroke="#ba7200" stroke-width="2"/><rect x="772" y="127" width="387" height="80" rx="5" fill="#ffffff" stroke="#82acd8"/><text x="790" y="159" font-size="23" fill="#0861b5" font-weight="600">y · endogenous</text><text x="790" y="190" font-size="19" fill="#52657d" font-weight="400">Declared at model.mod:1</text><rect x="752" y="282" width="401" height="125" rx="5" fill="white" stroke="#bbc5d2"/><text x="770" y="313" font-size="22" fill="#223047" font-weight="600">Quick Fix…</text><path d="M753 327L1152 327" stroke="#d4dae3" stroke-width="1"/><text x="772" y="356" font-size="21" fill="#0861b5" font-weight="400">Ignore this check (W031)</text><text x="772" y="389" font-size="21" fill="#0861b5" font-weight="400">Explain this check (W031)</text><rect x="292" y="518" width="891" height="132" rx="0" fill="#fbfcfe" stroke="none"/><path d="M292 518L1183 518" stroke="#d4dae3" stroke-width="1"/><text x="312" y="548" font-size="18" fill="#223047" font-weight="600">PROBLEMS  1</text><path d="M321 571l11 19h-22zM321 577v6M321 586v1" stroke="#a96300" stroke-width="1.7"/><text x="339" y="588" font-size="22" fill="#865313" font-weight="400">W031   Symbol y declared twice</text><text x="339" y="621" font-size="19" fill="#52657d" font-weight="400">First declaration: model.mod:1</text><text x="178" y="672" font-size="17" fill="white" font-weight="400" font-family="Consolas, monospace">x  1     e  1     #  1</text><path d="M660 664l5 5 10-12" stroke="white" stroke-width="2.5"/><text x="684" y="672" font-size="17" fill="white" font-weight="400">Dynare project: 3/3 checked</text></g></svg>